arm26_states
version=1
nRows=13
nColumns=17
inDegrees=yes

# SIMM Motion File Header:
name arm26_states
datacolumns 17
datarows 13
otherdata 1
range 0.74418007 0.75850412
endheader
time	/jointset/r_shoulder/r_shoulder_elev/value	/jointset/r_shoulder/r_shoulder_elev/speed	/jointset/r_elbow/r_elbow_flex/value	/jointset/r_elbow/r_elbow_flex/speed	/forceset/TRIlong/activation	/forceset/TRIlong/fiber_length	/forceset/TRIlat/activation	/forceset/TRIlat/fiber_length	/forceset/TRImed/activation	/forceset/TRImed/fiber_length	/forceset/BIClong/activation	/forceset/BIClong/fiber_length	/forceset/BICshort/activation	/forceset/BICshort/fiber_length	/forceset/BRA/activation	/forceset/BRA/fiber_length
      0.74418007	    -11.54295178	    139.79715537	     18.98528808	     49.07789054	     -0.07037106	      0.13690264	     -0.07037106	      0.07789682	     -0.07037106	      0.07290781	     -0.07037106	      0.14805136	     -0.07037106	      0.14589197	     -0.07037106	      0.08888164
      0.74528316	    -11.38842170	    140.37973056	     19.03903252	     48.36453152	     -0.07051308	      0.13701266	     -0.07051308	      0.07791924	     -0.07051308	      0.07293009	     -0.07051308	      0.14798159	     -0.07051308	      0.14582817	     -0.07051308	      0.08886878
      0.74638625	    -11.23325067	    140.95931451	     19.09198423	     47.64023084	     -0.07065510	      0.13712794	     -0.07065510	      0.07794135	     -0.07065510	      0.07295206	     -0.07065510	      0.14791182	     -0.07065510	      0.14576472	     -0.07065510	      0.08885610
      0.74789172	    -11.02044833	    141.74445771	     19.16295296	     46.63890416	     -0.07084893	      0.13728139	     -0.07084893	      0.07797102	     -0.07084893	      0.07298154	     -0.07084893	      0.14781663	     -0.07084893	      0.14567871	     -0.07084893	      0.08883911
      0.74907087	    -10.85294921	    142.35515379	     19.21747870	     45.84159910	     -0.07100075	      0.13740693	     -0.07100075	      0.07799384	     -0.07100075	      0.07300422	     -0.07100075	      0.14774209	     -0.07100075	      0.14561182	     -0.07100075	      0.08882604
      0.75025003	    -10.68473257	    142.96125412	     19.27105926	     45.03688128	     -0.07115257	      0.13752612	     -0.07115257	      0.07801630	     -0.07115257	      0.07302652	     -0.07115257	      0.14766759	     -0.07115257	      0.14554538	     -0.07115257	      0.08881319
      0.75142918	    -10.51580362	    143.56347865	     19.32368476	     44.22078648	     -0.07130438	      0.13765104	     -0.07130438	      0.07803839	     -0.07130438	      0.07304846	     -0.07130438	      0.14759313	     -0.07130438	      0.14547939	     -0.07130438	      0.08880056
      0.75260834	    -10.34616721	    144.16101069	     19.37534301	     43.39720549	     -0.07145620	      0.13777118	     -0.07145620	      0.07806009	     -0.07145620	      0.07307002	     -0.07145620	      0.14751872	     -0.07145620	      0.14541386	     -0.07145620	      0.08878816
      0.75378750	    -10.17582875	    144.75438281	     19.42602439	     42.56311511	     -0.07160801	      0.13789601	     -0.07160801	      0.07808142	     -0.07160801	      0.07309120	     -0.07160801	      0.14744435	     -0.07160801	      0.14534881	     -0.07160801	      0.08877598
      0.75496665	    -10.00479338	    145.34289076	     19.47571751	     41.72183949	     -0.07175983	      0.13801661	     -0.07175983	      0.07810237	     -0.07175983	      0.07311199	     -0.07175983	      0.14737005	     -0.07175983	      0.14528425	     -0.07175983	      0.08876403
      0.75614581	     -9.83306672	    145.92706733	     19.52441317	     40.87042228	     -0.07191165	      0.13814165	     -0.07191165	      0.07812292	     -0.07191165	      0.07313240	     -0.07191165	      0.14729559	     -0.07191165	      0.14522020	     -0.07191165	      0.08875232
      0.75732496	     -9.66065413	    146.50610843	     19.57210048	     40.01255779	     -0.07206346	      0.13826237	     -0.07206346	      0.07814308	     -0.07206346	      0.07315241	     -0.07206346	      0.14722142	     -0.07206346	      0.14515666	     -0.07206346	      0.08874083
      0.75850412	     -9.48756156	    147.08055944	     19.61877117	     39.14519518	     -0.07221528	      0.13838791	     -0.07221528	      0.07816285	     -0.07221528	      0.07317203	     -0.07221528	      0.14714734	     -0.07221528	      0.14509365	     -0.07221528	      0.08872958
